<?xml version="1.0" encoding="utf-8"?>
<!-- Generator: Adobe Illustrator 22.1.0, SVG Export Plug-In . SVG Version: 6.00 Build 0)  -->
<svg version="1.1" id="Logo" xmlns="http://www.w3.org/2000/svg" xmlns:xlink="http://www.w3.org/1999/xlink" x="0px" y="0px"
	 viewBox="0 0 150 45" style="enable-background:new 0 0 150 45;" xml:space="preserve">
<style type="text/css">
	.st0{fill:#E6192D;}
	.st1{fill:#003A70;}
</style>
<g>
	<g>
		<path class="st0" d="M82,20.1v-6.4h19.2c0.2,0,0.3,0.1,0.3,0.3c-0.3,2-0.7,3.8-1.1,5.2c-0.2,0.5-0.6,0.8-1.1,0.8H82z"/>
		<g>
			<path class="st1" d="M32.2,16.9c-2.3,0.3-4.4,0.8-6,1.4c-0.5,0.2-0.8,0.6-0.8,1.1v5.9l-9.1,0c-4.4,0-8-3.7-8-8.4
				c0-4.6,3.6-8.4,8-8.4l13.8,0l0-7.1c0,0-14.1,0-14.2,0C7.7,1.4,1,8.4,1,16.9c0,8.6,6.7,15.5,14.9,15.5h16.6V17.2
				C32.5,17,32.4,16.9,32.2,16.9z"/>
			<path class="st1" d="M109.9,25.4l-27.9,0l0,7.1h25.7c0.5,0,1-0.3,1.1-0.8c0.5-1.7,1-3.6,1.3-5.9
				C110.2,25.5,110.1,25.4,109.9,25.4z"/>
			<path class="st1" d="M71,1.3C63,4.7,57.3,10,57.3,10s-5.7-5.4-13.7-8.7c-2.3-1-4.8,0.7-4.8,3.2v28h7.1V10.2c3.8,2.1,7,5,9,7.1
				c1.3,1.3,3.5,1.3,4.8,0c2.1-2.1,5.3-5,9-7.1v22.2h7.1v-28C75.7,2,73.2,0.3,71,1.3z"/>
			<path class="st1" d="M110.4,1.4H82v7.1h26.2c0.5,0,1-0.3,1.1-0.8c0.5-1.7,1-3.7,1.3-6C110.7,1.6,110.6,1.4,110.4,1.4z"/>
			<path class="st1" d="M134.1,1.4c-0.1,0-17.7,0-17.7,0l0,31h17.7c8.2,0,14.9-6.9,14.9-15.5C149,8.4,142.3,1.4,134.1,1.4z
				 M133.7,25.3l-10.1,0V8.6l10.1,0c4.4,0,8,3.7,8,8.4C141.7,21.6,138.1,25.3,133.7,25.3z"/>
			<path class="st1" d="M117,38.7h-2.1c-0.3,0-0.5,0.2-0.5,0.5v4.9c0,0.2,0.1,0.3,0.2,0.5c0.1,0.1,0.2,0.1,0.3,0.1
				c0.1,0,0.1,0,0.2,0c0.2-0.1,0.3-0.3,0.3-0.5v-1.6h1c1,0,1.6,1.6,1.7,1.8c0.1,0.2,0.3,0.4,0.5,0.4c0,0,0.1,0,0.2,0
				c0.3-0.1,0.4-0.4,0.3-0.7c-0.1-0.2-0.4-1.1-1-1.8c0.7-0.3,1.1-0.9,1.1-1.7v0c0-0.5-0.2-0.9-0.5-1.2
				C118.3,38.9,117.7,38.7,117,38.7z M118.1,40.6c0,0.7-0.6,0.9-1.2,0.9h-1.5v-1.8h1.5C117.3,39.7,118.1,39.8,118.1,40.6L118.1,40.6
				z"/>
			<path class="st1" d="M125.3,38.6c-1.8,0-3.1,1.4-3.1,3.1v0c0,1.7,1.3,3.1,3.1,3.1c1.8,0,3.1-1.4,3.1-3.1v0
				C128.4,40,127.1,38.6,125.3,38.6z M127.3,41.7c0,1.2-0.8,2.1-2,2.1c-1.2,0-2-1-2-2.1v0c0-1.2,0.8-2.1,2-2.1
				C126.5,39.5,127.3,40.5,127.3,41.7L127.3,41.7z"/>
			<path class="st1" d="M136.1,38.6c-0.3,0-0.5,0.2-0.5,0.5v2.9c0,1.1-0.6,1.6-1.5,1.6c-0.9,0-1.5-0.6-1.5-1.7v-2.9
				c0-0.3-0.2-0.5-0.5-0.5c-0.3,0-0.5,0.2-0.5,0.5v2.9c0,1.7,1,2.6,2.5,2.6c1.6,0,2.6-0.9,2.6-2.7v-2.9
				C136.6,38.9,136.4,38.6,136.1,38.6z"/>
			<path class="st1" d="M110.1,41.3h-1.7c-0.3,0-0.5,0.2-0.5,0.5c0,0.3,0.2,0.5,0.5,0.5h1.2v1.1c-0.4,0.3-0.9,0.5-1.4,0.5
				c-1.2,0-2-0.9-2-2.1v0c0-1.1,0.8-2.1,1.9-2.1c0.6,0,1.1,0.2,1.4,0.5c0.1,0.1,0.2,0.1,0.3,0.1c0.3,0,0.5-0.2,0.5-0.5
				c0-0.2-0.1-0.3-0.2-0.4c-0.5-0.4-1.1-0.6-2-0.6c-1.8,0-3.1,1.4-3.1,3.1v0c0,1.7,1.2,3.1,3.1,3.1c0.9,0,1.6-0.3,2.1-0.6
				c0.2-0.2,0.4-0.4,0.4-0.7v-1.6C110.7,41.5,110.4,41.3,110.1,41.3z"/>
			<path class="st1" d="M80.7,43.7H78v-4.5c0-0.3-0.2-0.5-0.5-0.5c-0.3,0-0.5,0.2-0.5,0.5v4.9c0,0.3,0.2,0.5,0.5,0.5h3.2
				c0.3,0,0.5-0.2,0.5-0.5C81.1,43.9,80.9,43.7,80.7,43.7z"/>
			<path class="st1" d="M88.8,38.7c-0.3,0-0.5,0.2-0.5,0.5v3c-1-1.4-2.5-3.1-3.5-3.5c-0.2-0.1-0.4-0.1-0.5,0
				c-0.2,0.1-0.2,0.3-0.2,0.4v4.9c0,0.3,0.2,0.5,0.5,0.5c0.3,0,0.5-0.2,0.5-0.5v-3.9c0.4,0.4,1,0.9,1.5,1.6c0.9,1.1,1.5,2.1,1.7,2.5
				c0.1,0.2,0.3,0.3,0.5,0.3c0,0,0.1,0,0.1,0c0.2,0,0.4-0.3,0.4-0.5v-4.9C89.4,38.9,89.1,38.7,88.8,38.7z"/>
			<path class="st1" d="M96.8,43.7h-3v-1.6h2.6c0.3,0,0.5-0.2,0.5-0.5c0-0.3-0.2-0.5-0.5-0.5h-2.6v-1.5h2.9c0.3,0,0.5-0.2,0.5-0.5
				c0-0.3-0.2-0.5-0.5-0.5h-3.5c-0.3,0-0.5,0.2-0.5,0.5v4.9c0,0.3,0.2,0.5,0.5,0.5h3.5c0.3,0,0.5-0.2,0.5-0.5
				C97.2,43.9,97,43.7,96.8,43.7z"/>
			<path class="st1" d="M142.3,38.7h-1.8c-0.3,0-0.5,0.2-0.5,0.5v4.9c0,0.3,0.2,0.5,0.5,0.5c0.3,0,0.5-0.2,0.5-0.5v-1.4h1.2
				c1.3,0,2.4-0.7,2.4-2v0C144.5,39.5,143.7,38.7,142.3,38.7z M143.5,40.7c0,0.6-0.5,1.1-1.3,1.1H141v-2.1h1.2
				C143,39.6,143.5,40,143.5,40.7L143.5,40.7z"/>
		</g>
	</g>
</g>
</svg>
