<svg viewBox="0 0 34 14" xmlns="http://www.w3.org/2000/svg"><path d="m135.741 2387.42c-.624-.19-4.965-1.09-4.965-1.09s-8.048-4.33-9.014-4.33h-7.591c-1.619 0-2.972 1.17-4.538 2.52a28.281 28.281 0 0 1 -2.452 1.96l-3.347.42a1.151 1.151 0 0 0 -.834 1.08v3.63a1.161 1.161 0 0 0 1.2 1.13h2.3a3.791 3.791 0 0 0 7.508 0h10.983a3.791 3.791 0 0 0 7.508 0h1.89c1.5 0 2.228-.61 2.412-1.18.463-1.45.129-3.76-1.06-4.14zm-25.489 6.86a1.848 1.848 0 1 1 1.953-1.85 1.905 1.905 0 0 1 -1.953 1.85zm7.249-7.95h-6.549c.474-.35.912-.73 1.315-1.08 1.06-.91 1.976-1.7 3.072-1.7h2.161v2.78zm1.594-2.78h1.9c.9 0 4.563 2.01 5.937 2.78h-7.832v-2.78zm9.648 10.73a1.848 1.848 0 1 1 1.953-1.85 1.906 1.906 0 0 1 -1.953 1.85z" fill="#fff" fill-rule="evenodd" transform="translate(-103 -2382)"/></svg>