<?xml version="1.0" encoding="utf-8"?>
<!-- Generator: Adobe Illustrator 24.2.0, SVG Export Plug-In . SVG Version: 6.00 Build 0)  -->
<svg version="1.1" id="图层_1" xmlns="http://www.w3.org/2000/svg" xmlns:xlink="http://www.w3.org/1999/xlink" x="0px" y="0px"
	 viewBox="0 0 24 24" style="enable-background:new 0 0 24 24;" xml:space="preserve">
<style type="text/css">
	.st0{filter:url(#Adobe_OpacityMaskFilter);}
	.st1{fill-rule:evenodd;clip-rule:evenodd;fill:#FFFFFF;}
	.st2{mask:url(#mask-2_1_);fill-rule:evenodd;clip-rule:evenodd;fill:#212322;}
	.st3{fill-rule:evenodd;clip-rule:evenodd;fill:#231F20;}
</style>
<desc>Created with Sketch.</desc>
<g id="Group-6" transform="translate(1121.000000, 57.000000)">
	<g id="Group-3">
		<g id="Clip-2">
		</g>
		<defs>
			<filter id="Adobe_OpacityMaskFilter" filterUnits="userSpaceOnUse" x="-1121" y="-56.9" width="23.9" height="23.8">
				<feColorMatrix  type="matrix" values="1 0 0 0 0  0 1 0 0 0  0 0 1 0 0  0 0 0 1 0"/>
			</filter>
		</defs>
		<mask maskUnits="userSpaceOnUse" x="-1121" y="-56.9" width="23.9" height="23.8" id="mask-2_1_">
			<g class="st0">
				<polygon id="path-1_1_" class="st1" points="-1121,-56.9 -1097.1,-56.9 -1097.1,-33.1 -1121,-33.1 				"/>
			</g>
		</mask>
		<path id="Fill-1" class="st2" d="M-1109.1-51.5c-0.4,0.5,0.8,0.8-0.1,1.3c0.2,0.1,0.3,0.2,0.4,0.3c0,0.1-0.1,0.1-0.1,0.2
			c-0.2-0.1-0.4-0.3-0.6-0.4c0,0,0.1-0.1,0.1-0.1c-0.3,0-0.6-0.1-1-0.1c0.1,0.1,0.1,0.2,0.2,0.3c-0.8,0.3-2.6,2.1-2.9,2.9
			c-0.5-0.5-1.2-0.7-1.7-0.2c-0.3,0.2-0.6,0.8-0.4,1.1c0.2,0.6,0.6,0.1,1,0c0.1,0,0.1-0.1,0.3-0.1c0,0.3-0.1,0.4-0.1,0.4
			c0.2,0.3,0.3,0.5,0.5,0.7c0.1,0.2,0.2,0.5,0.3,0.5c0.2,0,0.6,0,0.8-0.2c0.3-0.3,0.6-0.3,0.9-0.1c0.5,0.3,1.2,0,1.6,0.7
			c0,0,0.1,0,0.1,0c0.2,0.1,0.5,0.3,0.5,0.4c0.1,0.5,0.5,0.6,0.8,0.7c0.5,0.2,0.9,0.3,1.3,0.4c-0.2,0.7-0.3,1.3-0.5,1.8
			c0,0.1-0.1,0.4-0.2,0.4c-0.8,0.1-0.8,0.6-1,1.2c-0.2,0.6-0.7,1.3-1.5,1.3c0.2,0.7,0.4,1.3,0.6,2c-0.3-0.1-0.6-0.2-0.8-0.3
			c-0.9-0.6-0.7-1.6-0.9-2.4c-0.2-0.6-0.1-1.3-0.1-2c0-0.2-0.1-0.3-0.2-0.4c-0.4-0.4-0.8-0.7-1.1-1.1c-0.4-0.5-0.4-1,0.1-1.5
			c0.3-0.3,0.3-0.6-0.1-0.8c-0.3-0.2-0.6-0.4-0.9-0.5c-0.4-0.2-0.9-0.3-1.3-0.5c-0.3-0.2-0.7-0.3-0.9-0.6c-0.3-0.5-0.4-1.1-0.6-1.6
			c-0.1,0-0.1,0.1-0.2,0.1c0.1,0.4,0.3,0.8,0.4,1.2c-0.1,0-0.1,0.1-0.2,0.1c-0.2-0.3-0.3-0.5-0.5-0.8c-0.2-0.4-0.3-0.8-0.4-1.2
			c-0.9,2-1,3.9-0.5,5.9c1,3.6,3.4,5.9,7,6.8c3.6,0.9,6.8-0.1,9.4-2.8c0.2-0.2,0.3-0.3,0.1-0.6c-0.2-0.5-0.2-1-0.4-1.5
			c-0.2-0.5-0.3-0.9,0-1.4c0.1-0.1-0.1-0.3-0.1-0.4c-0.2-0.5-0.4-1-0.7-1.7c-0.4,0-1.1,0-1.7,0c-0.8,0.1-1.6-0.8-1.5-1.6
			c0-0.3,0-0.6,0-0.9c0.3-0.3,1-0.4,1-1.2c0-0.1,0.2-0.2,0.3-0.2c0.7-0.1,1.4-0.2,2.1-0.3c0.1,0.4,1,1,1.2,0.8c0.4-0.5,0.6-0.1,1,0
			c0.2,0.1,0.5,0.1,1,0.1c-0.2-0.4-0.3-0.7-0.5-0.8c-0.2-0.2-0.5-0.3-0.9-0.5c0,0-0.1,0.2-0.3,0.5c-0.2-0.3-0.2-0.6-0.4-0.8
			c-0.2-0.2-0.4-0.3-0.7-0.4c0,0.1-0.1,0.1-0.1,0.2c0.2,0.2,0.4,0.4,0.7,0.6c-0.1,0.1-0.2,0.3-0.4,0.4c0,0-0.1-0.1-0.1-0.1
			c0.1-0.1,0.1-0.2,0.2-0.3c-0.4-0.2-0.7-0.8-1.2-0.4c-0.2,0.1-0.4,0.4-0.6,0.5c-0.3,0.1-0.6,0.2-0.9,0.2c-0.1,0-0.3-0.5-0.2-0.5
			c0.2-0.2,0.4-0.2,0.7-0.3c0.1,0,0.2,0,0.3,0c-0.2-0.6,0.6-1.2,1.7-1.3c-0.4-0.3-0.7-0.5-1.1-0.8c0.3-0.2,0.6-0.4,0.8-0.6
			c-3.3-3.2-8.9-3.1-11.7-0.7c0.5,0.2,1,0.3,1.5,0.5c0,0,0-0.1,0.1-0.1c-0.3-0.2-0.6-0.3-0.8-0.5c0.7-0.8,1.1,0.1,1.6,0.1
			c-0.1,0.1-0.2,0.2-0.3,0.4c0.2,0,0.4,0.1,0.5,0.1c0.2,0,0.4-0.2,0.5-0.2c0-0.1,0-0.3-0.1-0.4h0.5c0,0.2,0,0.4,0,0.6
			c0.1-0.1,0.2-0.3,0.3-0.4c0.1-0.1,0.3-0.2,0.4-0.2c0.7-0.2,1.2,0.2,1.6,1c-0.4,0.1-0.9,0.1-1.3,0.2c0-0.1,0-0.1,0-0.2
			c0.2-0.1,0.3-0.2,0.5-0.3c-0.6-0.3-0.9-0.2-1.6,0.5c-0.5-0.5-0.8,0-1.1,0.2c-0.4,0.2-0.3,0.4,0,0.7c0.2,0.2,0.5,0.3,0.7,0.5
			c0.2-0.2,0.5-0.4,0.8-0.7c0.2-0.2,0.3-0.4,0.4-0.6c0.2,0.1,0.5,0.3,0.8,0.5C-1109.6-51.3-1109.5-51.4-1109.1-51.5 M-1109-33.1
			c-6.6,0-11.9-5.2-12-11.8c0-6.6,5.3-12,11.9-12c6.6,0,12,5.3,12,11.9C-1097.1-38.5-1102.4-33.2-1109-33.1"/>
	</g>
	<path id="Fill-4" class="st3" d="M-1104.7-52c0.2,0.3,0.4,0.5,0.7,0.8c-0.3,0-0.6,0.1-0.9,0.1c-0.1-0.4-0.1-0.7-0.1-1
		C-1104.9-52-1104.8-52-1104.7-52"/>
</g>
</svg>
