<?xml version="1.0" encoding="utf-8"?>
<!-- Generator: Adobe Illustrator 24.1.1, SVG Export Plug-In . SVG Version: 6.00 Build 0)  -->
<svg version="1.1" id="图层_1" xmlns="http://www.w3.org/2000/svg" xmlns:xlink="http://www.w3.org/1999/xlink" x="0px" y="0px"
	 viewBox="0 0 78.8 11.7" style="enable-background:new 0 0 78.8 11.7;" xml:space="preserve">
<style type="text/css">
	.st0{fill:#1E2336;}
</style>
<g>
	<polygon class="st0" points="45.5,10 42.3,5.7 45.2,1.7 43.3,1.7 41.3,4.4 39.4,1.7 37.4,1.7 40.3,5.7 37.2,10 39.2,10 41.3,7.1 
		43.5,10 	"/>
	<polygon class="st0" points="61.6,7.2 60.5,7.6 60.5,5 61.6,5 61.6,4 60.5,4 60.5,1.5 59.3,1.5 59.3,4 58.3,4 58.3,5 59.3,5 
		59.3,8 58.3,8.4 58.3,9.7 61.6,8.3 	"/>
	<path class="st0" d="M62.3,5c0,2.5-0.3,4.1-0.9,4.9l0,0V10l0.9,0.6h0.1l0,0c0.7-0.9,1.1-2.5,1.1-4.7V1.1h-1.2
		C62.3,1.1,62.3,5,62.3,5z"/>
	<rect x="64.4" y="1.8" class="st0" width="1.2" height="7.6"/>
	<rect x="66.4" y="1.1" class="st0" width="1.2" height="9.6"/>
	<path class="st0" d="M74.4,9.8V8.9h3V8h-3V7.1h3.3V6.2h-3.3V5.4h-1.2v0.8h-1.6l0.2-0.4l-1-0.4v0.1c0,0-0.6,1.1-1.9,2.4L68.8,8
		l0.8,0.7h0.1l0.1-0.1c0.5-0.5,0.9-1,1.2-1.4h2.3v0.9h-2.9V9h2.9v0.9H69v0.9h9.9V9.9L74.4,9.8L74.4,9.8z"/>
	<path class="st0" d="M70.7,5.2h5.7v0.3h1.2V1.1h-8.2v4.4h1.2V5.2H70.7z M76.4,3.6v0.6h-5.7V3.6H76.4z M76.4,2v0.7h-5.7V2H76.4z"/>
	<rect x="34.4" y="1.8" class="st0" width="1.6" height="8.2"/>
	<path class="st0" d="M4.2,1.8H0V10h4.1c2.5,0,3.4-2.2,3.4-4.3C7.5,4.5,7.2,1.8,4.2,1.8z M3.9,8.6H1.6V3.2h2.3c0.6,0,2,0,2,2.6
		C5.8,6.6,5.6,8.6,3.9,8.6z"/>
	<polygon class="st0" points="18.9,6.4 23.1,6.4 23.1,5.1 18.9,5.1 18.9,3.2 23.9,3.2 23.9,1.8 17.2,1.8 17.2,10 24,10 24,8.5 
		18.9,8.5 	"/>
	<polygon class="st0" points="25.4,1.8 25.4,10 27,10 27,4.4 27.1,4.4 27.1,4.4 30.6,10 32.3,10 32.3,1.8 30.7,1.8 30.7,7.3 
		30.6,7.3 30.6,7.3 27.2,1.8 	"/>
	<polygon class="st0" points="10.5,8.6 15.7,3.3 15.7,1.8 8.6,1.8 8.6,3.2 13.6,3.2 8.5,8.4 8.5,10 15.8,10 15.8,8.6 	"/>
	<g>
		<path class="st0" d="M54.5,6.6l-0.7,0.9c1.6,1,2.3,2.8,2.3,2.8l1.1-0.5C56.4,8,54.5,6.6,54.5,6.6z"/>
		<path class="st0" d="M47.7,9.4l0.6,1C49.9,9.6,51,7.2,51,7.2l-1.1-0.5C49.1,8.3,47.7,9.4,47.7,9.4z"/>
		<path class="st0" d="M56.5,5h-3.4V3.8h-1.2V5h-2.1l0.7-1.7h6.6V2.1H51l0.3-0.7L50.1,1l-0.5,1.1h-2.2v1.2H49l-0.9,2v0.9h3.6v2.6
			c0,0.3-0.2,0.6-0.7,0.9l-0.1,0.1l0.7,0.9h0.1l0,0c0.8-0.4,1.2-1,1.2-1.7V6.2h3.4V5H56.5z"/>
	</g>
</g>
</svg>
