<?xml version="1.0" encoding="utf-8"?>
<!-- Generator: Adobe Illustrator 24.2.0, SVG Export Plug-In . SVG Version: 6.00 Build 0)  -->
<svg version="1.1" id="Marvell_logo_horizontal" xmlns="http://www.w3.org/2000/svg" xmlns:xlink="http://www.w3.org/1999/xlink"
	 x="0px" y="0px" viewBox="0 0 400 115" style="enable-background:new 0 0 400 115;" xml:space="preserve">
<style type="text/css">
	.st0{fill:url(#SVGID_1_);}
	.st1{fill-rule:evenodd;clip-rule:evenodd;fill:url(#SVGID_2_);}
	.st2{fill:#014099;}
	.st3{fill:#FFFFFF;}
	.st4{fill-rule:evenodd;clip-rule:evenodd;fill:url(#SVGID_3_);}
</style>
<linearGradient id="SVGID_1_" gradientUnits="userSpaceOnUse" x1="1.6" y1="527.25" x2="263.7" y2="527.25" gradientTransform="matrix(1 0 0 1 0 -480)">
	<stop  offset="0" style="stop-color:#FF6700"/>
	<stop  offset="1" style="stop-color:#FF4300"/>
</linearGradient>
<path class="st0" d="M263.7,71.1l-18.4-24.8l16.7-23h-10.9l-11.5,15.6l-10.9-15.6h-11.5l16.7,23.1L216,71.2h11.5l12.1-16.7
	l12.7,16.7L263.7,71.1L263.7,71.1z M199.8,23.9h9.2v47.2h-9.2V23.9z M25.8,23.9H1.6v47.2h23.6c14.4,0,19.6-12.7,19.6-24.8
	C44.8,39.4,43,23.9,25.8,23.9z M24,63.1H10.8V32H24c3.5,0,11.5,0,11.5,15C35,51.5,33.8,63.1,24,63.1z M109.9,50.4h24.8v-7.5h-24.8
	V32h29.4v-8.1h-38.6v47.2h39.2v-8.6h-30C109.9,62.5,109.9,50.4,109.9,50.4z M147.9,23.9v47.2h9.2V38.9h0.5l0,0l20.2,32.3h9.8V23.9
	h-9.2v31.7h-0.6l0,0l-19.6-31.7C158.2,23.9,147.9,23.9,147.9,23.9z M62.1,63.1L92,32.5v-8.6H51.1V32h28.8L50.5,61.9v9.2h42.1v-8
	H62.1z"/>
<linearGradient id="SVGID_2_" gradientUnits="userSpaceOnUse" x1="1.6" y1="568.9" x2="263.8" y2="568.9" gradientTransform="matrix(1 0 0 1 0 -480)">
	<stop  offset="0" style="stop-color:#FF6300"/>
	<stop  offset="1" style="stop-color:#FF5000"/>
</linearGradient>
<path class="st1" d="M1.6,89.8l131.1,4l131.1-4V88l-131.1-4L1.6,88V89.8L1.6,89.8z"/>
<rect x="-320.7" y="-1533.2" class="st2" width="1125.2" height="455.4"/>
<path class="st3" d="M323.3-1285.5l-41.8-56.3l37.9-52.5h-24.9l-26.1,35.4l-24.9-35.4h-26.2l38,52.5l-40.6,56.3h26.1l27.6-38
	l28.8,38H323.3z M177.9-1392.9h21v107.4h-21V-1392.9z M-217.6-1392.9h-55v107.4h53.7c32.7,0,44.5-28.8,44.5-56.3
	C-174.4-1357.6-178.3-1392.9-217.6-1392.9z M-221.5-1303.8h-30.2v-70.7h30.2c7.8,0,26.2,0,26.2,34.1
	C-196.6-1330-199.3-1303.8-221.5-1303.8z M-25.1-1332.7h55v-16.9h-55v-24.9h65.6v-18.4h-87.8v107.4h89v-19.6h-66.8
	C-25.1-1305.1-25.1-1332.7-25.1-1332.7z M60.1-1392.9v107.4h21v-73.3h1.2l0,0l45.8,73.3h22.3v-107.4h-21v72.1h-1.3l0,0l-44.5-72.1
	H60.1z M-135.1-1303.8l68-69.5v-19.6H-160v18.4h65.5l-66.8,68v21h95.6v-18.3H-135.1z"/>
<linearGradient id="SVGID_3_" gradientUnits="userSpaceOnUse" x1="-267.7" y1="-765.2" x2="323.3" y2="-765.2" gradientTransform="matrix(1 0 0 1 0 -480)">
	<stop  offset="0" style="stop-color:#FF6300"/>
	<stop  offset="1" style="stop-color:#FF5000"/>
</linearGradient>
<path class="st4" d="M-267.7-1243.1l295.5,8.9l295.5-8.9v-4.2l-295.5-8.9l-295.5,8.9V-1243.1L-267.7-1243.1z"/>
</svg>
